# xmcd
#
# Track frame offsets:
#	150
#	13515
#	32760
#	45185
#	57257
#	67872
#	77972
#	92904
#	105645
#	117860
#	127717
#	139172
#	150365
#	163867
#	171825
#	184375
#	194972
#	209542
#	226507
#	241997
#	250875
#	262360
#	267970
#
# Disc length: 3619 seconds
#
# Revision: 1
# Processed by: cddbd v1.5.1PL0 Copyright (c) Steve Scherf et al.
# Submitted via: audiograbber 1.83.01
#
DISCID=3f0e2117
DTITLE=PABLO COIMBRA - VIOLÃO DE OURO
DYEAR=1900
DGENRE=
TTITLE0=AMIGO
TTITLE1=SAHAHI
TTITLE2=LEMBRANÇAS
TTITLE3=MODINHA
TTITLE4=MEMÓRIAS DO CAFÉ NICE
TTITLE5=AMANTE A MODA ANTIGA
TTITLE6=MALAGUENA
TTITLE7=CORAÇÃO DE ESTUDANTE
TTITLE8=DESPEDIDA
TTITLE9=THE WINDMILLS OF YOUR MIND
TTITLE10=VELHO BARRACO
TTITLE11=L'ETE INDIEN
TTITLE12=HEY
TTITLE13=VALSINHA
TTITLE14=OLHOS NEGROS
TTITLE15=ROMANCE DE AMOR
TTITLE16=SÚPLICA CEARENSE
TTITLE17=MEU QUERIDO, MEU VELHO, MEU AMIGO
TTITLE18=MARCHA DOS MARINHEIROS
TTITLE19=SONHO DE AMOR
TTITLE20=YESTERDAY
TTITLE21=FELICIDADE
TTITLE22=LUAR DO SERTÃO
EXTD=
EXTT0=
EXTT1=
EXTT2=
EXTT3=
EXTT4=
EXTT5=
EXTT6=
EXTT7=
EXTT8=
EXTT9=
EXTT10=
EXTT11=
EXTT12=
EXTT13=
EXTT14=
EXTT15=
EXTT16=
EXTT17=
EXTT18=
EXTT19=
EXTT20=
EXTT21=
EXTT22=
PLAYORDER=
